<?xml version="1.0" encoding="UTF-8"?>
<svg id="Capa_1" data-name="Capa 1" xmlns="http://www.w3.org/2000/svg" viewBox="0 0 720 720">
  <defs>
    <style>
      .cls-1 {
        fill: #eaf27c;
        stroke-width: 0px;
      }
    </style>
  </defs>
  <path class="cls-1" d="M200.53,328.15c0,.51.03,1.02,0,1.53-.06,1.01.35,1.54,1.41,1.51.71-.02,1.43,0,2.15,0,11.34,0,22.69,0,34.03,0v-.03c10.42,0,20.85.04,31.27-.01,8.94-.04,17.4-1.98,25.13-6.64,5.15-3.11,8.96-7.36,11.22-12.95,2.99-7.4,3.26-15.09,2.38-22.89-.43-3.78-1.5-7.38-3.35-10.74-3.73-6.78-9.51-11.08-16.66-13.68-7.28-2.66-14.9-3.48-22.57-3.63-8.38-.16-16.76-.05-25.14-.05-12.16,0-24.32,0-36.48,0-3.62,0-3.39-.31-3.39,3.22,0,21.45,0,42.9,0,64.35Z"/>
  <path class="cls-1" d="M298.53,381.1c-7.57-3.14-15.46-4.56-23.58-4.59-23.81-.08-47.62-.04-71.43-.05-.51,0-1.02.02-1.53,0-1.03-.03-1.49.45-1.45,1.48.03.71,0,1.43,0,2.14,0,12.56,0,25.13,0,37.69s0,25.54,0,38.31c0,3.45-.38,3.27,3.33,3.27,17.48,0,34.95.02,52.43,0,7.25,0,14.52.11,21.76-.21,7.67-.34,15.22-1.66,22.29-4.88,9.98-4.54,16.66-11.93,19.2-22.75,1.8-7.67,1.67-15.41.42-23.12-2.1-13.02-9.14-22.2-21.45-27.3Z"/>
  <path class="cls-1" d="M360,19.86C172.15,19.86,19.86,172.14,19.86,360s152.29,340.14,340.14,340.14,340.14-152.29,340.14-340.14S547.86,19.86,360,19.86ZM445.85,254.88c0-9.3,0-18.6,0-27.9,0-2.61.03-2.64,2.72-2.64,38.85,0,77.69,0,116.54,0,2.85,0,2.87.02,2.87,2.79.01,9.4.01,18.8,0,28.2,0,2.78-.02,2.8-2.86,2.8-19.32,0-38.64,0-57.96,0-19.32,0-38.64,0-57.96,0-3.67,0-3.34.27-3.35-3.25ZM386.45,436.89c-1.97,15.56-8.02,29.21-18.24,41.06-9.01,10.45-20.33,17.6-32.9,22.9-12.52,5.28-25.68,8.04-39.17,9.4-6.21.63-12.44.75-18.68.75-46.51,0-93.03,0-139.54,0-4.29,0-3.76.42-3.76-3.76,0-98.2,0-196.39,0-294.59,0-4.07-.48-3.63,3.56-3.63,47.02,0,94.05-.02,141.07.02,15.07.01,29.98,1.52,44.53,5.65,10.12,2.87,19.54,7.28,27.6,14.15,10.13,8.62,16.52,19.56,19.53,32.5,3.03,13.01,3.37,26.12.85,39.21-3.22,16.74-12.73,29.35-26.57,38.93-3.86,2.67-7.97,4.94-12.6,7.33,3.52,1.28,6.52,2.27,9.44,3.44,23.55,9.44,37.7,26.88,43.39,51.35,2.71,11.63,2.98,23.41,1.47,35.29ZM614.22,408.91c-.04,1.34-.55,2.11-2.06,1.91-.7-.09-1.43-.02-2.14-.02-49.99,0-99.98,0-149.96.01-4.03,0-4.08-.91-3.67,3.98.63,7.53,1.87,14.96,4.48,22.13,4.86,13.3,14.02,22.12,27.53,26.19,13.1,3.95,26.38,4.45,39.54.38,10.84-3.35,19.72-9.7,26.31-19.06.89-1.26,1.59-2.62,2.14-4.05,1.21-3.15,1.02-2.56,3.99-2.57,13.9-.02,27.8,0,41.7,0h8.08c-2.01,6.67-4.45,12.7-7.28,18.58-4.99,10.39-11.24,19.9-19.52,28-9.69,9.48-21.26,15.8-33.96,20.18-13.87,4.78-28.21,6.46-42.82,6.38-12.43-.07-24.66-1.55-36.58-5.15-16.43-4.97-30.98-13.19-42.99-25.55-12.05-12.39-20.23-27.1-25.24-43.59-5.26-17.31-6.67-35.01-5.13-53,1.33-15.65,5.43-30.5,12.57-44.49,9.9-19.39,24.48-34.27,43.58-44.73,14.57-7.98,30.15-12.24,46.73-13.23,17.04-1.02,33.71.59,49.59,7.12,19.38,7.97,34.63,20.96,45.8,38.72,9.61,15.28,15.23,31.98,17.87,49.77,1.41,9.53,1.86,19.09,1.62,28.7-.03,1.12-.13,2.24-.17,3.37Z"/>
  <path class="cls-1" d="M544.56,345.63c-5.9-10.15-14.54-16.3-26.13-18.4-7.52-1.36-15.06-1.56-22.57-.37-16.06,2.56-27.81,11.12-34.85,25.88-2.44,5.12-3.51,10.63-4.47,16.17-.66,3.8-.68,3.8,3.07,3.8,30.35,0,60.7,0,91.05,0h2.96c.06-.65.16-.97.1-1.25-1.78-9.06-4.49-17.79-9.17-25.83Z"/>
</svg>