<?xml version="1.0" encoding="UTF-8"?>
<svg id="Capa_1" data-name="Capa 1" xmlns="http://www.w3.org/2000/svg" viewBox="0 0 720 720">
  <defs>
    <style>
      .cls-1 {
        fill: #eaf27c;
        stroke-width: 0px;
      }
    </style>
  </defs>
  <path class="cls-1" d="M304.08,441.81c0-5.77-2.21-7.89-7.98-7.84-22.18.2-44.37.1-66.55.05-8.32-.02-8.63-.34-8.64-8.86-.03-25.77.15-51.54-.13-77.31-.07-6.42,1.95-8.65,8.49-8.55,21.96.32,43.92-.12,65.87.26,6.78.12,9.04-2.11,8.99-8.8-.19-23.75-.43-47.52.23-71.25.96-34.13,11-64.83,37.03-88.54,18.19-16.57,40.15-24.96,64.3-27.87,29.1-3.51,58.13-.26,87.16,1.48,4.84.29,7.06,2.6,7.02,7.75-.17,23.3-.18,46.61.01,69.91.05,5.53-2.01,7.42-7.49,7.49-17.91.25-35.82-.94-53.72.98-23.67,2.55-36.16,15-36.86,38.91-.62,21.05-.07,42.12-.3,63.19-.06,5.63,2.68,6.65,7.47,6.63,26.22-.12,52.43-.07,78.65-.03,7.84.01,8.91,1.26,7.87,9.18-3.41,25.96-7.1,51.89-10.15,77.89-.74,6.32-3.48,7.65-9.11,7.6-21.96-.21-43.92.11-65.88-.19-6.65-.09-8.94,1.99-8.92,8.84.19,84.7.12,169.4.14,254.11,0,.99.01,1.86.04,2.63,168.57-20.54,299.17-164.06,299.17-338.17,0-188.22-152.58-340.8-340.79-340.8-188.22,0-340.8,152.58-340.8,340.8,0,169.1,123.19,309.35,284.69,336.12.06-.83.09-1.75.09-2.86.05-84.26,0-168.51.09-252.76Z"/>
</svg>