<?xml version="1.0" encoding="UTF-8"?>
<svg id="Capa_1" data-name="Capa 1" xmlns="http://www.w3.org/2000/svg" viewBox="0 0 720 720">
  <defs>
    <style>
      .cls-1 {
        fill: #eaf27c;
        stroke-width: 0px;
      }
    </style>
  </defs>
  <path class="cls-1" d="M532.49,266.04c0-43.3-35.23-78.53-78.53-78.53h-187.92c-43.3,0-78.52,35.23-78.52,78.53v187.92c0,43.3,35.22,78.53,78.52,78.53h187.92c43.3,0,78.53-35.23,78.53-78.53h0s0-187.92,0-187.92ZM360,468.07c-59.59,0-108.07-48.48-108.07-108.06,0-59.59,48.48-108.07,108.07-108.07,59.59,0,108.07,48.48,108.07,108.07,0,59.59-48.48,108.06-108.07,108.06ZM491.9,266.97c-5.09,5.06-12.1,7.99-19.3,7.99-7.17,0-14.22-2.93-19.27-7.99-5.09-5.09-8.01-12.13-8.01-19.3,0-7.19,2.92-14.24,8.01-19.3,5.06-5.09,12.1-7.99,19.27-7.99,7.19,0,14.24,2.9,19.3,7.99,5.09,5.06,7.99,12.11,7.99,19.3,0,7.17-2.9,14.21-7.99,19.3Z"/>
  <path class="cls-1" d="M360,9.91c-193.35,0-350.09,156.74-350.09,350.09,0,193.35,156.74,350.09,350.09,350.09,193.35,0,350.09-156.74,350.09-350.09,0-193.35-156.74-350.09-350.09-350.09ZM569.7,453.96c0,63.82-51.92,115.74-115.74,115.74h-187.92c-63.81,0-115.73-51.92-115.73-115.74v-187.92c0-63.82,51.92-115.74,115.73-115.74h187.92c63.82,0,115.74,51.92,115.74,115.74v187.92Z"/>
  <path class="cls-1" d="M360,289.15c-39.07,0-70.85,31.79-70.85,70.86,0,39.07,31.79,70.85,70.85,70.85,39.07,0,70.86-31.78,70.86-70.85,0-39.07-31.79-70.86-70.86-70.86Z"/>
</svg>